<?xml version="1.0" ?>
<!-- Uploaded to: SVG Repo, www.svgrepo.com, Generator: SVG Repo Mixer Tools -->
<svg fill="#000000" width="800px" height="800px" viewBox="0 0 64 64" xmlns="http://www.w3.org/2000/svg">
<title/>
<g id="Tancepan">
<path d="M35.06,48H28.94A13,13,0,0,1,16,35.06V27a1,1,0,0,1,1-1H47a1,1,0,0,1,1,1v8.06A13,13,0,0,1,35.06,48ZM18,28v7.06A11,11,0,0,0,28.94,46h6.12A11,11,0,0,0,46,35.06V28Z"/>
<path d="M47,61a1.25,1.25,0,0,1-.32,0,1,1,0,0,1-.63-1.27,12.75,12.75,0,0,0,0-6.44c0-.16-.09-.18-.13-.2-1-.47-4.42,1.08-6.69,2.11-3.65,1.64-6.53,2.94-7.92,1.56-2.3-2.3-.61-8.72-.25-10A1,1,0,0,1,32.27,46,1,1,0,0,1,33,47.27c-.76,2.68-1.34,6.93-.25,8,.65.3,3.79-1.12,5.67-2,3.53-1.59,6.58-3,8.39-2.08A2.22,2.22,0,0,1,48,52.76a14.62,14.62,0,0,1,0,7.56A1,1,0,0,1,47,61Z"/>
<path d="M21,28a1,1,0,0,1-1-1V13a1,1,0,0,1,2,0V27A1,1,0,0,1,21,28Z"/>
<path d="M24,28a1,1,0,0,1-1-1V13a1,1,0,0,1,2,0V27A1,1,0,0,1,24,28Z"/>
<path d="M43,28a1,1,0,0,1-1-1V13a1,1,0,0,1,2,0V27A1,1,0,0,1,43,28Z"/>
<path d="M40,28a1,1,0,0,1-1-1V13a1,1,0,0,1,2,0V27A1,1,0,0,1,40,28Z"/>
<path d="M44,31H20a1,1,0,0,1,0-2H44a1,1,0,0,1,0,2Z"/>
<path d="M38,45H27a1,1,0,0,1,0-2H38a1,1,0,0,1,0,2Z"/>
</g>
</svg>